<svg id="visual" viewBox="0 0 900 600" width="900" height="600" xmlns="http://www.w3.org/2000/svg" xmlns:xlink="http://www.w3.org/1999/xlink" version="1.1"><rect x="0" y="0" width="900" height="600" fill="#fafafa"></rect><path d="M584 600L545.3 590C506.7 580 429.3 560 406.7 540C384 520 416 500 453.2 480C490.3 460 532.7 440 526.8 420C521 400 467 380 468.7 360C470.3 340 527.7 320 523.3 300C519 280 453 260 463.3 240C473.7 220 560.3 200 556.7 180C553 160 459 140 407.7 120C356.3 100 347.7 80 399.2 60C450.7 40 562.3 20 618.2 10L674 0L900 0L900 10C900 20 900 40 900 60C900 80 900 100 900 120C900 140 900 160 900 180C900 200 900 220 900 240C900 260 900 280 900 300C900 320 900 340 900 360C900 380 900 400 900 420C900 440 900 460 900 480C900 500 900 520 900 540C900 560 900 580 900 590L900 600Z" fill="#b5b5b5"></path><path d="M444 600L446.3 590C448.7 580 453.3 560 473.7 540C494 520 530 500 543.7 480C557.3 460 548.7 440 537.7 420C526.7 400 513.3 380 491.5 360C469.7 340 439.3 320 429.8 300C420.3 280 431.7 260 470.5 240C509.3 220 575.7 200 614.7 180C653.7 160 665.3 140 665.3 120C665.3 100 653.7 80 599.7 60C545.7 40 449.3 20 401.2 10L353 0L900 0L900 10C900 20 900 40 900 60C900 80 900 100 900 120C900 140 900 160 900 180C900 200 900 220 900 240C900 260 900 280 900 300C900 320 900 340 900 360C900 380 900 400 900 420C900 440 900 460 900 480C900 500 900 520 900 540C900 560 900 580 900 590L900 600Z" fill="#b4a5a7"></path><path d="M676 600L656 590C636 580 596 560 563.5 540C531 520 506 500 497.2 480C488.3 460 495.7 440 502 420C508.3 400 513.7 380 495.3 360C477 340 435 320 465.7 300C496.3 280 599.7 260 650.7 240C701.7 220 700.3 200 669.2 180C638 160 577 140 575.7 120C574.3 100 632.7 80 638.2 60C643.7 40 596.3 20 572.7 10L549 0L900 0L900 10C900 20 900 40 900 60C900 80 900 100 900 120C900 140 900 160 900 180C900 200 900 220 900 240C900 260 900 280 900 300C900 320 900 340 900 360C900 380 900 400 900 420C900 440 900 460 900 480C900 500 900 520 900 540C900 560 900 580 900 590L900 600Z" fill="#b3959a"></path><path d="M578 600L580.2 590C582.3 580 586.7 560 605.3 540C624 520 657 500 632.8 480C608.7 460 527.3 440 495.8 420C464.3 400 482.7 380 509.2 360C535.7 340 570.3 320 563.5 300C556.7 280 508.3 260 505 240C501.7 220 543.3 200 547.2 180C551 160 517 140 534.5 120C552 100 621 80 615.8 60C610.7 40 531.3 20 491.7 10L452 0L900 0L900 10C900 20 900 40 900 60C900 80 900 100 900 120C900 140 900 160 900 180C900 200 900 220 900 240C900 260 900 280 900 300C900 320 900 340 900 360C900 380 900 400 900 420C900 440 900 460 900 480C900 500 900 520 900 540C900 560 900 580 900 590L900 600Z" fill="#b1858c"></path><path d="M520 600L556.2 590C592.3 580 664.7 560 676.8 540C689 520 641 500 640.7 480C640.3 460 687.7 440 709.7 420C731.7 400 728.3 380 720 360C711.7 340 698.3 320 680.7 300C663 280 641 260 654.7 240C668.3 220 717.7 200 724.8 180C732 160 697 140 686.5 120C676 100 690 80 695.3 60C700.7 40 697.3 20 695.7 10L694 0L900 0L900 10C900 20 900 40 900 60C900 80 900 100 900 120C900 140 900 160 900 180C900 200 900 220 900 240C900 260 900 280 900 300C900 320 900 340 900 360C900 380 900 400 900 420C900 440 900 460 900 480C900 500 900 520 900 540C900 560 900 580 900 590L900 600Z" fill="#ae747f"></path><path d="M586 600L586.8 590C587.7 580 589.3 560 607.5 540C625.7 520 660.3 500 667.7 480C675 460 655 440 645.7 420C636.3 400 637.7 380 649.5 360C661.3 340 683.7 320 708.2 300C732.7 280 759.3 260 747.2 240C735 220 684 200 662 180C640 160 647 140 650 120C653 100 652 80 644.7 60C637.3 40 623.7 20 616.8 10L610 0L900 0L900 10C900 20 900 40 900 60C900 80 900 100 900 120C900 140 900 160 900 180C900 200 900 220 900 240C900 260 900 280 900 300C900 320 900 340 900 360C900 380 900 400 900 420C900 440 900 460 900 480C900 500 900 520 900 540C900 560 900 580 900 590L900 600Z" fill="#aa6473"></path><path d="M662 600L664.7 590C667.3 580 672.7 560 688.2 540C703.7 520 729.3 500 737.7 480C746 460 737 440 715.7 420C694.3 400 660.7 380 667.7 360C674.7 340 722.3 320 739.7 300C757 280 744 260 743.7 240C743.3 220 755.7 200 747.8 180C740 160 712 140 707 120C702 100 720 80 723 60C726 40 714 20 708 10L702 0L900 0L900 10C900 20 900 40 900 60C900 80 900 100 900 120C900 140 900 160 900 180C900 200 900 220 900 240C900 260 900 280 900 300C900 320 900 340 900 360C900 380 900 400 900 420C900 440 900 460 900 480C900 500 900 520 900 540C900 560 900 580 900 590L900 600Z" fill="#a65266"></path><path d="M741 600L735.8 590C730.7 580 720.3 560 730.7 540C741 520 772 500 788 480C804 460 805 440 797.8 420C790.7 400 775.3 380 779.3 360C783.3 340 806.7 320 818.3 300C830 280 830 260 811.5 240C793 220 756 200 742.5 180C729 160 739 140 758.2 120C777.3 100 805.7 80 798.8 60C792 40 750 20 729 10L708 0L900 0L900 10C900 20 900 40 900 60C900 80 900 100 900 120C900 140 900 160 900 180C900 200 900 220 900 240C900 260 900 280 900 300C900 320 900 340 900 360C900 380 900 400 900 420C900 440 900 460 900 480C900 500 900 520 900 540C900 560 900 580 900 590L900 600Z" fill="#a1405a"></path><path d="M801 600L802 590C803 580 805 560 808.8 540C812.7 520 818.3 500 814.7 480C811 460 798 440 800.3 420C802.7 400 820.3 380 816.7 360C813 340 788 320 770.7 300C753.3 280 743.7 260 754.7 240C765.7 220 797.3 200 813.5 180C829.7 160 830.3 140 820.7 120C811 100 791 80 782 60C773 40 775 20 776 10L777 0L900 0L900 10C900 20 900 40 900 60C900 80 900 100 900 120C900 140 900 160 900 180C900 200 900 220 900 240C900 260 900 280 900 300C900 320 900 340 900 360C900 380 900 400 900 420C900 440 900 460 900 480C900 500 900 520 900 540C900 560 900 580 900 590L900 600Z" fill="#9b2b4e"></path><path d="M867 600L869.2 590C871.3 580 875.7 560 867.2 540C858.7 520 837.3 500 834.8 480C832.3 460 848.7 440 847.2 420C845.7 400 826.3 380 826.5 360C826.7 340 846.3 320 845.5 300C844.7 280 823.3 260 824.8 240C826.3 220 850.7 200 852.2 180C853.7 160 832.3 140 828 120C823.7 100 836.3 80 834.3 60C832.3 40 815.7 20 807.3 10L799 0L900 0L900 10C900 20 900 40 900 60C900 80 900 100 900 120C900 140 900 160 900 180C900 200 900 220 900 240C900 260 900 280 900 300C900 320 900 340 900 360C900 380 900 400 900 420C900 440 900 460 900 480C900 500 900 520 900 540C900 560 900 580 900 590L900 600Z" fill="#950943"></path></svg>