<svg id="visual" viewBox="0 0 900 600" width="900" height="600" xmlns="http://www.w3.org/2000/svg" xmlns:xlink="http://www.w3.org/1999/xlink" version="1.1"><rect x="0" y="0" width="900" height="600" fill="#fafafa"></rect><path d="M318 0L356.7 10C395.3 20 472.7 40 495.3 60C518 80 486 100 448.8 120C411.7 140 369.3 160 375.2 180C381 200 435 220 433.3 240C431.7 260 374.3 280 378.7 300C383 320 449 340 438.7 360C428.3 380 341.7 400 345.3 420C349 440 443 460 494.3 480C545.7 500 554.3 520 502.8 540C451.3 560 339.7 580 283.8 590L228 600L0 600L0 590C0 580 0 560 0 540C0 520 0 500 0 480C0 460 0 440 0 420C0 400 0 380 0 360C0 340 0 320 0 300C0 280 0 260 0 240C0 220 0 200 0 180C0 160 0 140 0 120C0 100 0 80 0 60C0 40 0 20 0 10L0 0Z" fill="#b5b5b5"></path><path d="M458 0L455.7 10C453.3 20 448.7 40 428.3 60C408 80 372 100 358.3 120C344.7 140 353.3 160 364.3 180C375.3 200 388.7 220 410.5 240C432.3 260 462.7 280 472.2 300C481.7 320 470.3 340 431.5 360C392.7 380 326.3 400 287.3 420C248.3 440 236.7 460 236.7 480C236.7 500 248.3 520 302.3 540C356.3 560 452.7 580 500.8 590L549 600L0 600L0 590C0 580 0 560 0 540C0 520 0 500 0 480C0 460 0 440 0 420C0 400 0 380 0 360C0 340 0 320 0 300C0 280 0 260 0 240C0 220 0 200 0 180C0 160 0 140 0 120C0 100 0 80 0 60C0 40 0 20 0 10L0 0Z" fill="#b4a5a7"></path><path d="M226 0L246 10C266 20 306 40 338.5 60C371 80 396 100 404.8 120C413.7 140 406.3 160 400 180C393.7 200 388.3 220 406.7 240C425 260 467 280 436.3 300C405.7 320 302.3 340 251.3 360C200.3 380 201.7 400 232.8 420C264 440 325 460 326.3 480C327.7 500 269.3 520 263.8 540C258.3 560 305.7 580 329.3 590L353 600L0 600L0 590C0 580 0 560 0 540C0 520 0 500 0 480C0 460 0 440 0 420C0 400 0 380 0 360C0 340 0 320 0 300C0 280 0 260 0 240C0 220 0 200 0 180C0 160 0 140 0 120C0 100 0 80 0 60C0 40 0 20 0 10L0 0Z" fill="#b3959a"></path><path d="M324 0L321.8 10C319.7 20 315.3 40 296.7 60C278 80 245 100 269.2 120C293.3 140 374.7 160 406.2 180C437.7 200 419.3 220 392.8 240C366.3 260 331.7 280 338.5 300C345.3 320 393.7 340 397 360C400.3 380 358.7 400 354.8 420C351 440 385 460 367.5 480C350 500 281 520 286.2 540C291.3 560 370.7 580 410.3 590L450 600L0 600L0 590C0 580 0 560 0 540C0 520 0 500 0 480C0 460 0 440 0 420C0 400 0 380 0 360C0 340 0 320 0 300C0 280 0 260 0 240C0 220 0 200 0 180C0 160 0 140 0 120C0 100 0 80 0 60C0 40 0 20 0 10L0 0Z" fill="#b1858c"></path><path d="M382 0L345.8 10C309.7 20 237.3 40 225.2 60C213 80 261 100 261.3 120C261.7 140 214.3 160 192.3 180C170.3 200 173.7 220 182 240C190.3 260 203.7 280 221.3 300C239 320 261 340 247.3 360C233.7 380 184.3 400 177.2 420C170 440 205 460 215.5 480C226 500 212 520 206.7 540C201.3 560 204.7 580 206.3 590L208 600L0 600L0 590C0 580 0 560 0 540C0 520 0 500 0 480C0 460 0 440 0 420C0 400 0 380 0 360C0 340 0 320 0 300C0 280 0 260 0 240C0 220 0 200 0 180C0 160 0 140 0 120C0 100 0 80 0 60C0 40 0 20 0 10L0 0Z" fill="#ae747f"></path><path d="M316 0L315.2 10C314.3 20 312.7 40 294.5 60C276.3 80 241.7 100 234.3 120C227 140 247 160 256.3 180C265.7 200 264.3 220 252.5 240C240.7 260 218.3 280 193.8 300C169.3 320 142.7 340 154.8 360C167 380 218 400 240 420C262 440 255 460 252 480C249 500 250 520 257.3 540C264.7 560 278.3 580 285.2 590L292 600L0 600L0 590C0 580 0 560 0 540C0 520 0 500 0 480C0 460 0 440 0 420C0 400 0 380 0 360C0 340 0 320 0 300C0 280 0 260 0 240C0 220 0 200 0 180C0 160 0 140 0 120C0 100 0 80 0 60C0 40 0 20 0 10L0 0Z" fill="#aa6473"></path><path d="M240 0L237.3 10C234.7 20 229.3 40 213.8 60C198.3 80 172.7 100 164.3 120C156 140 165 160 186.3 180C207.7 200 241.3 220 234.3 240C227.3 260 179.7 280 162.3 300C145 320 158 340 158.3 360C158.7 380 146.3 400 154.2 420C162 440 190 460 195 480C200 500 182 520 179 540C176 560 188 580 194 590L200 600L0 600L0 590C0 580 0 560 0 540C0 520 0 500 0 480C0 460 0 440 0 420C0 400 0 380 0 360C0 340 0 320 0 300C0 280 0 260 0 240C0 220 0 200 0 180C0 160 0 140 0 120C0 100 0 80 0 60C0 40 0 20 0 10L0 0Z" fill="#a65266"></path><path d="M161 0L166.2 10C171.3 20 181.7 40 171.3 60C161 80 130 100 114 120C98 140 97 160 104.2 180C111.3 200 126.7 220 122.7 240C118.7 260 95.3 280 83.7 300C72 320 72 340 90.5 360C109 380 146 400 159.5 420C173 440 163 460 143.8 480C124.7 500 96.3 520 103.2 540C110 560 152 580 173 590L194 600L0 600L0 590C0 580 0 560 0 540C0 520 0 500 0 480C0 460 0 440 0 420C0 400 0 380 0 360C0 340 0 320 0 300C0 280 0 260 0 240C0 220 0 200 0 180C0 160 0 140 0 120C0 100 0 80 0 60C0 40 0 20 0 10L0 0Z" fill="#a1405a"></path><path d="M101 0L100 10C99 20 97 40 93.2 60C89.3 80 83.7 100 87.3 120C91 140 104 160 101.7 180C99.3 200 81.7 220 85.3 240C89 260 114 280 131.3 300C148.7 320 158.3 340 147.3 360C136.3 380 104.7 400 88.5 420C72.3 440 71.7 460 81.3 480C91 500 111 520 120 540C129 560 127 580 126 590L125 600L0 600L0 590C0 580 0 560 0 540C0 520 0 500 0 480C0 460 0 440 0 420C0 400 0 380 0 360C0 340 0 320 0 300C0 280 0 260 0 240C0 220 0 200 0 180C0 160 0 140 0 120C0 100 0 80 0 60C0 40 0 20 0 10L0 0Z" fill="#9b2b4e"></path><path d="M35 0L32.8 10C30.7 20 26.3 40 34.8 60C43.3 80 64.7 100 67.2 120C69.7 140 53.3 160 54.8 180C56.3 200 75.7 220 75.5 240C75.3 260 55.7 280 56.5 300C57.3 320 78.7 340 77.2 360C75.7 380 51.3 400 49.8 420C48.3 440 69.7 460 74 480C78.3 500 65.7 520 67.7 540C69.7 560 86.3 580 94.7 590L103 600L0 600L0 590C0 580 0 560 0 540C0 520 0 500 0 480C0 460 0 440 0 420C0 400 0 380 0 360C0 340 0 320 0 300C0 280 0 260 0 240C0 220 0 200 0 180C0 160 0 140 0 120C0 100 0 80 0 60C0 40 0 20 0 10L0 0Z" fill="#950943"></path></svg>