<svg id="visual" viewBox="0 0 900 600" width="900" height="600" xmlns="http://www.w3.org/2000/svg" xmlns:xlink="http://www.w3.org/1999/xlink" version="1.1"><rect x="0" y="0" width="900" height="600" fill="#001220"></rect><path d="M137 0L131.3 20C125.7 40 114.3 80 114.8 120C115.3 160 127.7 200 136 240C144.3 280 148.7 320 152 360C155.3 400 157.7 440 155 480C152.3 520 144.7 560 140.8 580L137 600L0 600L0 580C0 560 0 520 0 480C0 440 0 400 0 360C0 320 0 280 0 240C0 200 0 160 0 120C0 80 0 40 0 20L0 0Z" fill="#c62368"></path><path d="M72 0L79.2 20C86.3 40 100.7 80 101 120C101.3 160 87.7 200 84.7 240C81.7 280 89.3 320 92.8 360C96.3 400 95.7 440 90 480C84.3 520 73.7 560 68.3 580L63 600L0 600L0 580C0 560 0 520 0 480C0 440 0 400 0 360C0 320 0 280 0 240C0 200 0 160 0 120C0 80 0 40 0 20L0 0Z" fill="#e34c67"></path><path d="M51 0L47.3 20C43.7 40 36.3 80 35.7 120C35 160 41 200 45.7 240C50.3 280 53.7 320 50.5 360C47.3 400 37.7 440 31.3 480C25 520 22 560 20.5 580L19 600L0 600L0 580C0 560 0 520 0 480C0 440 0 400 0 360C0 320 0 280 0 240C0 200 0 160 0 120C0 80 0 40 0 20L0 0Z" fill="#fa7268"></path></svg>