<svg id="visual" viewBox="0 0 900 600" width="900" height="600" xmlns="http://www.w3.org/2000/svg" xmlns:xlink="http://www.w3.org/1999/xlink" version="1.1"><rect x="0" y="0" width="900" height="600" fill="#001220"></rect><path d="M69 0L66.2 20C63.3 40 57.7 80 57.8 120C58 160 64 200 68.2 240C72.3 280 74.7 320 76.5 360C78.3 400 79.7 440 78.3 480C77 520 73 560 71 580L69 600L0 600L0 580C0 560 0 520 0 480C0 440 0 400 0 360C0 320 0 280 0 240C0 200 0 160 0 120C0 80 0 40 0 20L0 0Z" fill="#c62368"></path><path d="M36 0L39.7 20C43.3 40 50.7 80 50.8 120C51 160 44 200 42.5 240C41 280 45 320 46.8 360C48.7 400 48.3 440 45.5 480C42.7 520 37.3 560 34.7 580L32 600L0 600L0 580C0 560 0 520 0 480C0 440 0 400 0 360C0 320 0 280 0 240C0 200 0 160 0 120C0 80 0 40 0 20L0 0Z" fill="#e34c67"></path><path d="M26 0L24.2 20C22.3 40 18.7 80 18.3 120C18 160 21 200 23.3 240C25.7 280 27.3 320 25.7 360C24 400 19 440 15.8 480C12.7 520 11.3 560 10.7 580L10 600L0 600L0 580C0 560 0 520 0 480C0 440 0 400 0 360C0 320 0 280 0 240C0 200 0 160 0 120C0 80 0 40 0 20L0 0Z" fill="#fa7268"></path></svg>